<?xml version="1.0" encoding="utf-8"?>
<!-- Generator: Adobe Illustrator 19.1.0, SVG Export Plug-In . SVG Version: 6.00 Build 0)  -->
<svg version="1.1" xmlns="http://www.w3.org/2000/svg" xmlns:xlink="http://www.w3.org/1999/xlink" x="0px" y="0px"
	 viewBox="0 0 800 600" style="enable-background:new 0 0 800 600;" xml:space="preserve">
<style type="text/css">
	.st0{fill:#F3F4F6;stroke:#808080;stroke-width:0.5;stroke-linecap:round;stroke-linejoin:round;}
	.st1{fill:#FACA15;stroke:#808080;stroke-width:0.5;stroke-linecap:round;stroke-linejoin:round;}
	.st2{fill:#F3F4F6;stroke:#808080;stroke-width:0.5;stroke-linecap:round;stroke-linejoin:round;}
	.st3{fill:#F3F4F6;stroke:#808080;stroke-width:0.5;stroke-linecap:round;stroke-linejoin:round;}
	.st4{fill:#84E1BC;stroke:#808080;stroke-width:0.5;stroke-linecap:round;stroke-linejoin:round;}
	.st5{fill:#F3F4F6;stroke:#808080;stroke-width:0.5;stroke-linecap:round;stroke-linejoin:round;}
	.st6{fill:#F3F4F6;stroke:#808080;stroke-width:0.5;stroke-linecap:round;stroke-linejoin:round;}
	.st7{fill:#1C64F2;stroke:#808080;stroke-width:0.5;stroke-linecap:round;stroke-linejoin:round;}
	.st8{font-family:'Roboto-Regular';}
	.st9{font-size:14px;}
</style>
<g id="Benin">
	<path class="st0" d="M512.482,91.947l-1.908,1.999l-6.02,10.241l-1.03,3.961l-0.547,1.337l-1.738,4.727l0.152,2.02l1.29,2.388
		l15.533,21.878l2.096,1.989l0.717,0.12l0.815-0.147l0.102,0.006l0.704,0.038l0.726,0.698l-0.887,3.408v1.9l0.349,1.752l0.645,1.609
		l0.887,1.498v0.023l1.783,7.812l-0.098,2.583l-1.881,4.617l-0.107,1.518l0.439,1.047l0.699,0.729l0.761,0.639l0.654,0.752
		l0.43,0.94l0.815,2.876l0.815,0.971l1.111,0.337l1.227,0.231l1.102,0.634l0.797,1.694l0.43,2.549l0.012,2.122l-0.034,0.004
		l-32.831,3.629l-20.877,4.235l-20.926,1.747l-12.667-2.603l-4.734-0.143l-13.907,1.894l-13.652-1.025l-4.412,0.781l-4.385,0.285
		l-4.533,1.061l-4.183,0.014l0.972-0.543l-0.434-27.905l0.161-1.441l0.314-1.076l0.887-1.529l1.72-1.974l5.151-4.294l-2.822-2.715
		l-1.012-0.707l-0.229-0.068l-0.403-0.041l-0.43-0.19l-0.43-0.252l-0.766-0.363l-1.075-0.204l-0.824-0.027l-4.273-6.105
		l-16.868-30.253l-0.402-0.466l11.402-11.613l6.333-5.17l4.64-2.594l1.2-1.163l0.314-0.836l-0.072-0.963l0.054-1.536l0.932-2.491
		l3.332-3.723l1.218-2.287l3.126-8.508l-0.17-0.9l-1.012-1.524l-0.117-0.964l0.493-1.133l0.735-0.191l0.815,0.114l0.752-0.214
		l0.582-0.66l0.681-1.274l0.6-0.632l0.869-0.082l0.905,0.332l0.636-0.136l0.054-1.51l-0.179-1.097L413.012,64l-0.824-0.196
		l-0.923-0.419l-0.896-0.733l-0.618-0.714l-0.484-0.874l-2.92-8.256l-0.851-4.908l-0.072-2.003l0.761-1.53l2.096-0.965l1.191-0.15
		l1.989,0.082l1.111-0.109l0.206-0.228l0.717-0.988l0.448-0.328l0.645,0.15l0.493,0.51l0.439,0.146l0.493-0.92l0.403-1.089
		l0.609-0.25l0.815,0.123l1.021,0.036l0.242,0.2l0.134,0.483l0.269,0.396l0.654-0.046l0.493-0.296l0.788-0.756l0.394-0.255
		l3.082-0.838l0.34,0.064l0.743,0.437l0.43,0.046l0.529-0.26l1.039-0.77l0.6-0.114l3.055,0.815l0.788-0.456l1.209-1.913l0.287-0.683
		l0.17-0.692l0.251-0.633l0.466-0.519l0.941-0.364l0.914,0.615l0.905-0.223l0.797-0.647l1.388-1.658l0.959-0.629l0.833-0.164
		l1.756,0.064l0.887-0.178l2.06-0.073l1.03-1.34l4.156,3.718l1.765,0.948l0.869,0.943l0.672,1.084l0.555,1.982l0.708,0.738
		l0.958,0.496l1.021,0.378l2.875,0.323l0.726,0.228l0.322,0.46l0.851,1.64l3.512,5.173l14.906,13.587l0.269,0.469l1.174,0.887
		l0.269,0.473l0.215,1.879l0.43,1.997l0.636,1.601l1.98,3.334l1.236,1.433l0.735,0.687l1.066,0.719l1.2,0.309l1.165-0.541
		l1.218-0.728l1.021,0.2l0.932,0.546l0.967,0.314l3.888,2.401l3.171,1.128l0.967,0.673l0.699,0.664l2.902,4.142l0.582,0.514
		l0.484,0.291l0.385,0.359l0.322,0.691l0.439,1.391l0.323,0.673l0.17,0.777l0.305,0.673l0.726,0.395l0.806,1.395L512.482,91.947z"/>
	<path class="st1" d="M533.357,185.445l0.015,2.691l-0.654,2.35l-2.213,4.373l-0.779,2.335l-0.09,4.521l-0.573,1.62l-1.317,1.64
		l-1.353,0.208l-5.554-2.9l-1.828-0.324l-1.702,0.55l-1.693,1.676l-0.573,0.821l-0.242,0.557l-0.09,1.724l-0.34,1.041l-2.186,3.361
		l-1.783,3.96l0.081,1.637l1.236,1.997l5.894,6.073l0.779,1.101l0.251,1.368l-0.232,1.567l-0.073,0.49l-0.788,1.919l-1.084,0.807
		l-1.263,0.603l-1.344,1.286l-0.564,1.415l-0.537,7.469l-0.878,1.737l-2.804,3.345l-2.284,4.16l-1.532,1.429l-5.214-0.567
		l-3.377,0.896l-6.235,2.556l-1.397,1.036l-0.761,1.748l-0.197,1.978l0.305,1.718l1.066,2.691l0.69,2.657l-0.609,2.289l-2.822,1.577
		l-1.532-0.09l-1.693-0.316l-1.397,0.429l-0.654,2.153l0.107,0.589l0.457,1.112l-0.099,0.451l-5.285,6.904l-0.645,0.564
		l-1.397,0.471l-0.627,0.465l-1.666,2.696l-0.34,2.418l0.582,2.436l1.102,2.742l0.296,1.457l-0.009,5.666l-0.537,1.813l-1.783,3.39
		l-2.884,8.947l-1.326,2.727l-2.132,1.478l-5.921,1.534l-1.012,0.009l-0.869-0.419l-0.842-0.574l-0.95-0.451l-0.941-0.113
		l-2.661,0.086l-0.932,0.176l-0.923,0.595l-0.734,0.77l-0.833,0.617l-1.165,0.162l-6.683-0.547l0.278,2.311l-0.188,5.526
		l-0.475,2.387l-0.278,0.529l-0.976,1.466l-0.215,0.18l0.152,0.714l0.367,0.191l0.43,0.153l0.331,0.608l-0.036,1.331l-1.084,2.481
		l-0.322,1.344l0.107,0.772l0.448,1.34l-0.108,0.772l-0.466,0.459l-1.46,0.669l-0.493,0.657l-0.027,0.925l0.008,0.095l-0.034,0
		l-45.758-0.475l0.735-3.073l-0.511-0.529l-0.264-0.162l-0.538-0.223l-8.662-2.42l-1.733-0.831l-0.793-0.507l-0.685-0.554
		l-0.591-0.644l-0.528-0.696l-0.323-0.621l-0.282-0.723l-0.39-1.793l-0.121-1.414l0.188-4.309l0.175-0.98v-0.014l0.443-2.983
		l0.542-2.098l0.726-1.793l0.121-0.493l0.027-0.575l-0.121-0.611l-0.376-0.676l-0.282-0.331l-0.287-0.23l-2.553-1.21l-0.658-0.435
		l-0.417-0.365l-0.538-0.588l-0.515-0.676l-0.43-0.753l-0.175-0.453l-0.376-1.868l-0.255-2.761l0.04-4.975l0.417-2.938l1.268-3.772
		l0.806-0.602l0.645-0.379l0.417-0.149l1.411-0.243l2.033-0.135l3.265,0.081l0.484-0.095l0.448-0.142l0.376-0.21l0.336-0.25
		l0.511-0.487l0.363-0.496l0.323-1.15l3.417-22.416l-0.013-1.241l-0.779-1.553l-1.442-1.28l-1.774-1.885l-1.142-1.815l-0.175-0.395
		l-1.671-4.847l-0.094-1.138l0.067-1.499l0.739-4.605l0.672-2.482v-1.701l-0.766-4.281l0.739-1.324l0.058-0.041l0.121-0.115
		l0.108-0.4l0.081-0.407l-0.743-1.771l-0.376-1.634l-0.027-0.346l0.148-0.511l0.282-0.644l0.676-0.82l0.47-0.456l0.47-0.305
		l0.82-0.373l0.873-0.258l4.734-0.156l1.397-0.298l3.444-1.229l0.766-0.441l0.659-0.543l0.596-0.637l0.296-0.393l0.175-1.067
		l0.081-1.752l-0.676-6.237l-1.236-4.02l-0.282-1.377l-1.317-3.363l-0.403-0.665l-0.538-0.692l-2.222-2.079l-0.497-0.679
		l-0.323-0.667l-0.081-0.238l-0.081-0.448l-0.04-1.337l0.175-1.251l0.564-1.414l1.048-1.88l2.181-2.849l0.242-0.177l0.282-0.258
		l1.854-1.066l4.183-0.014l4.533-1.061l4.385-0.285l4.412-0.781l13.652,1.025l13.907-1.894l4.734,0.143l12.667,2.603l20.926-1.747
		l20.877-4.235l32.831-3.629L533.357,185.445z"/>
	<path class="st2" d="M436.316,444.691l-0.201,2.846l0.457,3.407l1.738,3.232l2.562,3.048l1.917,3.182l-0.233,3.63l-0.206,0.776
		l-0.063,0.489l-0.278,0.175l-1.872-0.372l-0.905-0.009l-0.663,0.381l-0.215,0.96l1.818,21.352l-0.09,1.202l-0.287,0.821
		l-0.69,0.897l-0.797,1.646l-0.376,0.579l-0.09,0.601l0.331,1.13l0.743,0.933l2.275,1.861l0.502,0.82l-0.34,0.937l-0.887,0.471
		l-1.111,0.327l-1.012,0.48l-2.248,3.12l0.287,3.147l1.174,3.326l0.43,3.635l-0.923,3.637l-0.233,1.878l0.439,1.709l0.663,0.88
		l0.734,0.526l0.887,0.264l1.075,0.101l0.511,0.392l0.17,0.88l0.287,3.999l-0.484,0.979l-1.066,0.701l-1.568,1.391l-0.994,1.863
		l-0.027,1.776l0.743,3.655l-0.179,1.834l-1.606,4.656l-0.024-0.041l-3.377-5.681l-1.33-1.42l-4.21-3.536l-1.671-2.719
		l-1.787-10.163l-4.143-10.018l-0.833-4.395l0.148-4.413l1.653,0.121l0.636-0.013l0.511-0.087l0.376-0.191l0.202-0.255l0.067-0.128
		l0.027-0.047v-0.007l-0.417-3.862l-1.926-9.661l0.108-1.462l-0.04-0.484l-0.497-0.565l-4.103-2.787l-1.317-2.87l-1.357-5.132
		l-0.282-1.023l-0.009-1.355l-0.394-0.834l-0.484-0.644l-0.3-0.778v-3.879l-0.47-1.624l-0.623-2.156l-0.224-2.085l1.021-1.896
		l2.719-3.849l0.86-0.572l1.25-0.395l0.202-0.96l-0.591-2.258l0.201-2.46l1.308-3.609l1.156-0.056l17.835,0.101L436.316,444.691z"/>
	<path class="st3" d="M432.333,424.279l0.046,0.333l0.699,1.065l0.976,2.493l2.078,2.313l0.77,1.249l0.242,1.249l-0.829,11.711
		l-0.031,0l-17.835-0.101l-1.156,0.056l-1.308,3.609l-0.201,2.46l0.591,2.258l-0.202,0.96l-1.25,0.395l-0.86,0.572l-2.719,3.849
		l-1.021,1.896l0.224,2.085l0.623,2.156l-15.547-7.081l-6.118-1.928l-5.043-0.451l-4.573,0.115l-4.103-0.687l-3.283-2.251
		l-3.238-2.864l-4.734-1.969l-3.874-0.808l-17.526,1.017l-1.704-0.153l-0.007-1.528l-0.072-17.226l-0.054-13.76l0.215-13.856
		l0.152-9.969l-0.923-7.465l-0.439-0.803l-0.512-0.173l-0.249-0.362l0.43-2.123v-1.511l0.134-0.738l2.849-4.696l0.322-1.539
		l-0.367-0.85l-2.24-2.832l-0.439-0.974l-0.125-1.026l-0.033-2.6l1.569,0.112l4.654,0.169l1.639-0.148l0.457,0.013l0.958-0.094
		l7.529-2.014l1.429-0.243l1.048-0.081l0.538,0.135l0.927,0.385l0.739,0.466l0.658,0.54l2.343,2.52l0.349,0.252l0.403,0.229
		l0.457,0.182l0.484,0.135l0.537,0.074l2.638-0.027l0.511,0.081l0.417,0.162l0.376,0.25l0.309,0.29l1.29,1.669l0.636,0.601
		l0.753,0.5l0.82,0.425l2.54,0.765l0.376,0.209l0.999,0.817l0.417,0.176l0.47,0.088l2.11-0.007l1.035,0.182l2.396,0.873l0.524,0.108
		l0.524,0.047l2.047-0.074l1.478-0.421l1.035-0.493l0.753-0.479l1.227-0.929l0.672-1.044l-0.484-0.499l-0.627-2.101l1.165-7.466
		l-1.42-7.78l-0.627-1.193l-0.806-1.044l0.645-2.697l45.758,0.475l0.034,0l1.689,21.229l0.202,2.541l-0.681,2.94l-0.69,1.026
		l-1.729,1.946l-0.457,1.089l-0.018,0.771l0.215,1.608v0.807l-0.663,3.605l-0.107,1.666l0.313,2.073l0.672,1.92l1.702,3.622
		l0.591,1.852l-0.045,1.908l-0.681,1.598l-0.905,1.452l-0.672,1.472l-0.233,1.591l-0.188,5.2L434,415.312l-0.332,5.481l-0.305,0.773
		l-0.887,1.658l-0.197,0.665L432.333,424.279z"/>
	<path class="st0" d="M435.82,547.462l-0.664,3.878l-0.036,5.281l-0.047,0.003l-19.012,1.766l-0.194-1.475l-0.426-0.262
		l-0.426-0.065l-0.655-0.557l0.282-1.792l1.371-3.349l0.349-2.122l-0.376-3.947l-1.021-0.719l-0.376-0.201l-0.511-0.195
		l-0.484-0.114l-0.954-1.695l-0.618-7.894l-0.094-2.598l-0.349-9.301l-0.273-4.998l-0.86-3.534l-2.97-4.818l0.148-1.757l0.954-1.688
		l1.411-1.912l1.397-0.733l2.423-0.242l5.379,0.034l-0.148,4.413l0.833,4.395l4.143,10.018l1.787,10.163l1.671,2.719l4.21,3.536
		l1.33,1.42l3.377,5.681l0.024,0.041l-0.293,0.85L435.82,547.462z"/>
	<path class="st4" d="M375.452,115.169l0.402,0.466l16.868,30.253l4.273,6.105l0.824,0.027l1.075,0.204l0.766,0.363l0.43,0.252
		l0.43,0.19l0.403,0.041l0.229,0.068l1.012,0.707l2.822,2.715l-5.151,4.294l-1.72,1.974l-0.887,1.529l-0.314,1.076l-0.161,1.441
		l0.434,27.905l-0.972,0.543l-1.854,1.066l-0.282,0.258l-0.242,0.177l-2.181,2.849l-1.048,1.88l-0.564,1.414l-0.175,1.251
		l0.04,1.337l0.081,0.448l0.081,0.238l0.323,0.667l0.497,0.679l2.222,2.079l0.538,0.692l0.403,0.665l1.317,3.363l0.282,1.377
		l1.236,4.02l0.676,6.237l-0.081,1.752l-0.175,1.067l-0.296,0.393l-0.596,0.637l-0.659,0.543l-0.766,0.441l-3.444,1.229
		l-1.397,0.298l-4.734,0.156l-0.873,0.258l-0.82,0.373l-0.47,0.305l-0.47,0.456l-0.676,0.82l-0.282,0.644l-0.148,0.511l0.027,0.346
		l0.376,1.634l-24.612-0.78l-3.252,1.22l-3.041,1.751l-2.853,2.32l-3.682,1.832l-4.358,1.057l-5.473-0.603l-3.686-0.847l-4.21-0.502
		l-3.659-0.111l-4.909,0.971l-1.092,0.403l-0.01-0.672l-1.111-2.975l-9.146-6.085l-12.416-8.256l-7.381-4.906l-4.99-3.326
		l-8.241-5.484l-6.557-4.37l-0.699-1.319l-0.072-2.013l1.209-9.019l1.272-4.879l0.063-3.425l-0.69-7.895l1.245-2.93l4.712-4.489
		l1.12-1.613l0.269-0.902l0.134-2.003l0.17-0.938l1.353-2.585l-0.125-0.949l-0.726-1.781l-0.206-0.945l0.251-1.743l2.222-5.401
		l2.643,1.46l1.164,0.159l1.55,0.014l0.367-0.469l0.215-1.024l-0.081-1.029l-0.502-0.471l-0.69-0.326l-0.305-0.798l-0.045-0.984
		l0.098-0.886l0.305-0.204l0.735-1.113l0.511-1.059l0.573-0.78l0.385-0.154l0.403,0.143l1.899,0.301l0.582,0.413l0.439,0.41
		l0.466,0.19l0.251,0.19l0.457,0.857l0.152,0.202l0.547-0.027l0.941-0.476l0.34-0.093l2.669,0.292l0.878,0.304l0.233,0.431
		l0.618,0.873l0.636,0.592l0.287-0.397l0.099-1.408l-0.985-1.013l-0.546-0.932l-0.143-0.955l-0.018-0.993l-0.179-1.043l-0.161,0.005
		l-0.824-0.376l-0.251-0.172l-0.054-0.404l0.152-1.091l-0.099-0.358l-0.815-0.188l-0.547,0.492l-0.323,0.12l-0.09-1.324l0.448-0.195
		l2.858-0.644l0.502-0.354l0.591-1.599l0.385-0.449l0.923,0.009l1.729,0.823l0.896,0.313l-0.448-1.513l-0.34-2.992l-1.621-2.663
		l0.43-1.1l0.896-0.855l0.905-1.377l0.833,0.663l0.654,1.001l-0.116,0.449l0.761,0.011l0.457-0.222l0.448-0.275l0.752-0.172
		l1.639,0.082l1.406,0.402l2.875,1.368l1.102-2.037l0.134-0.683l-0.197-0.862l-0.851-0.842l-0.188-0.697l0.43-1.055l0.967,0.483
		l1.012,1.15l0.547,0.946l0.591-0.724l0.609-0.245l0.618,0.245l0.6,0.724l1.514-1.287l-0.17-1.128l-0.842-1.203l-0.502-1.505
		l0.753-1.663l1.729-1.124l1.962-0.86l1.424-0.878l-0.824-1.873l0.107-0.738l0.717-1.047l1.129-0.838l1.049-0.343l0.035-0.011
		l0.887-0.486l0.502-1.262l1.415,0.797l1.675,0.345l8.152,0.656l-0.179,0.581l-0.197,1.235l-0.152,0.581l1.505-0.091l1.818,3.371
		l1.693-0.579l1.478-0.785l4.004-0.847l1.657-0.797l1.353-0.427l3.834,0.272l1.639-0.118l3.404-1.369l1.657-0.341l1.505,0.454
		l0.833-0.554l1.057,0.154l2.249,1.056l3.664,1.416l3.064,0.238l2.374-1.133L375.452,115.169z"/>
	<path class="st5" d="M317.251,244.597l1.092-0.403l4.909-0.971l3.659,0.111l4.21,0.502l3.686,0.847l5.473,0.603l4.358-1.057
		l3.682-1.832l2.853-2.32l3.041-1.751l3.252-1.22l24.612,0.78l0.743,1.771l-0.081,0.407l-0.108,0.4l-0.121,0.115l-0.058,0.041
		l-0.739,1.324l0.766,4.281v1.701l-0.672,2.482l-0.739,4.605l-0.067,1.499l0.094,1.138l1.671,4.847l0.175,0.395l1.142,1.815
		l1.774,1.885l1.442,1.28l0.779,1.553l0.013,1.241l-3.417,22.416l-0.323,1.15l-0.363,0.496l-0.511,0.487l-0.336,0.25l-0.376,0.21
		l-0.448,0.142l-0.484,0.095l-3.265-0.081l-2.033,0.135l-1.411,0.243l-0.417,0.149l-0.645,0.379l-0.806,0.602l-1.268,3.772
		l-0.417,2.938l-0.04,4.975l0.255,2.761l0.376,1.868l0.175,0.453l0.43,0.753l0.515,0.676l0.538,0.588l0.417,0.365l0.658,0.435
		l2.553,1.21l0.287,0.23l0.282,0.331l0.376,0.676l0.121,0.611l-0.027,0.575l-0.121,0.493l-0.726,1.793l-0.542,2.098l-0.443,2.983
		v0.014l-0.175,0.98l-0.188,4.309l0.121,1.414l0.39,1.793l0.282,0.723l0.323,0.621l0.528,0.696l0.591,0.644l0.685,0.554l0.793,0.507
		l1.733,0.831l8.662,2.42l0.538,0.223l0.264,0.162l0.511,0.529l-0.735,3.073l-0.645,2.697l0.806,1.044l0.627,1.193l1.42,7.78
		l-1.165,7.466l0.627,2.101l0.484,0.499l-0.672,1.044l-1.227,0.929l-0.753,0.479l-1.035,0.493l-1.478,0.421l-2.047,0.074
		l-0.524-0.047l-0.524-0.108l-2.396-0.873l-1.035-0.182l-2.11,0.007l-0.47-0.088l-0.417-0.176l-0.999-0.817l-0.376-0.209
		l-2.54-0.765l-0.82-0.425l-0.753-0.5l-0.636-0.601l-1.29-1.669l-0.309-0.29l-0.376-0.25l-0.417-0.162l-0.511-0.081l-2.638,0.027
		l-0.537-0.074l-0.484-0.135l-0.457-0.182l-0.403-0.229l-0.349-0.252l-2.343-2.52l-0.658-0.54l-0.739-0.466l-0.927-0.385
		l-0.538-0.135l-1.048,0.081l-1.429,0.243l-7.529,2.014l-0.958,0.094l-0.457-0.013l-1.639,0.148l-4.654-0.169l-1.569-0.112
		l-0.146-11.66l-0.108-8.079l-0.125-9.514l-0.143-10.909l-0.466-2.379l-0.69-2.1l-1.783-3.125l-5.384-5.646l-6.925-7.245
		l-0.444-0.682l-1.643-2.526l-1.254-3.479l-0.591-8.845l-0.994-2.477l-1.487,0.724l-1.281-1.306l-0.878-2.134l-0.278-1.778
		l0.358-1.135l1.541-2.365l0.538-1.108l0.107-0.891l-0.027-1.753l0.206-0.869l0.125-1.063l-0.681-4.078l-0.108-6.786l-0.161-9.549
		L317.251,244.597z"/>
	<path class="st6" d="M341.46,455.303l-0.034-7.477l1.704,0.153l17.526-1.017l3.874,0.808l4.734,1.969l3.238,2.864l3.283,2.251
		l4.103,0.687l4.573-0.115l5.043,0.451l6.118,1.928l15.547,7.081l0.47,1.624v3.879l0.3,0.778l0.484,0.644l0.394,0.834l0.009,1.355
		l0.282,1.023l1.357,5.132l1.317,2.87l4.103,2.787l0.497,0.565l0.04,0.484l-0.108,1.462l1.926,9.661l0.417,3.862v0.007l-0.027,0.047
		l-0.067,0.128l-0.202,0.255l-0.376,0.191l-0.511,0.087l-0.636,0.013l-1.653-0.121l-5.379-0.034l-2.423,0.242l-1.397,0.733
		l-1.411,1.912l-0.954,1.688l-0.148,1.757l-26.081,0.108l-0.605-0.524l-1.438,0.793l-0.914,0.372l-0.564-0.063l-0.757-0.309
		l-2.956-2.187l-0.47-0.437l-0.188-0.39l-0.403-1.535l-1.174-1.762l-1.397-0.726l-1.411-1.986l-1.818-2.775l-1.384-1.049
		l-0.497-0.222l-0.591-0.43l-1.075-1.811l-0.824-3.778l-1.129-4.052l-1.33-2.31l-1.102-0.693l-0.322-0.54l-0.417-0.962l-3.35-4.304
		l-1.344-1.003l-0.69-0.834l-0.336-0.689l-0.134-1.644l-0.161-0.592l-0.497-0.72l-0.309-0.673l-0.497-2.23l-4.546-9.634
		l-0.658-1.073l-1.841-2.215L341.46,455.303z"/>
	<path class="st7" d="M341.46,455.303l2.803,0.57l1.841,2.215l0.658,1.073l4.546,9.634l0.497,2.23l0.309,0.673l0.497,0.72
		l0.161,0.592l0.134,1.644l0.336,0.689l0.69,0.834l1.344,1.003l3.35,4.304l0.417,0.962l0.322,0.54l1.102,0.693l1.33,2.31
		l1.129,4.052l0.824,3.778l1.075,1.811l0.591,0.43l0.497,0.222l1.384,1.049l1.818,2.775l1.411,1.986l1.397,0.726l1.174,1.762
		l0.403,1.535l0.188,0.39l0.47,0.437l2.956,2.187l0.757,0.309l0.564,0.063l0.914-0.372l1.438-0.793l0.605,0.524l0.793,2.12
		l-0.417,1.32l-0.537,1.015l-1.371,3.491l-0.39,0.762l-0.712,0.827l-1.25,2.173l-0.314,0.867l-0.121,0.742l0.161,1.075l0.081,1.703
		l-1.156,2.361l-5.285-2.643l-2.674-0.755l-2.893-0.114l-4.721,1.024l-5.473,2.005l-8.152,1.915l-1.895-0.034l-1.465-0.181
		l-4.734-2.26l-0.363-0.167l0.681-0.91l0.349-1.342l-0.511-2.092l-0.663-1.774l-0.376-1.494l-0.054-1.481l0.654-3.641l-0.179-1.205
		l-0.779-0.937l-1.286-0.959l-0.139-0.103l-0.977-1.439l-1.684-6.163l6.548,0.045l1.577-0.466l-0.063-12.742l-0.054-12.599
		l-0.054-12.962L341.46,455.303z"/>
	<path class="st4" d="M338.507,526.104l0.363,0.167l4.734,2.26l1.465,0.181l1.895,0.034l8.152-1.915l5.473-2.005l4.721-1.024
		l2.893,0.114l2.674,0.755l5.285,2.643l-0.47,2.24l0.094,1.579l-0.161,0.936l-0.202,0.585l-0.712,0.712l-0.443,0.567l-0.658,1.062
		l-0.269,0.732l-0.108,0.808l0.094,2.347l0.296,4.902l-0.094,1.78l-0.242,1.037l-0.484,1.243l-1.899,4.887l-0.443,1.809l0.269,2.675
		l1.33,1.923l0.743,2.258l0.296,1.558l-0.049,0.748l0,0.006l-8.943,1.015L341.147,570l-0.624-1.807l1.792-0.947l11.135-2.628
		l1.801-0.107l-1.63-6.357l-1.684-6.505l-2.231-3.576l-0.743-0.555l-1.863-0.956l-0.573-0.468l-0.188-0.757l0.215-1.858
		l-0.107-0.871l-0.546-0.739l-1.442-1.185l-0.224-0.602l-0.116-0.992l-0.627-0.219l-0.851,0.081l-0.815-0.094l-0.681-0.403
		l-0.726-0.58l-0.681-0.685l-0.52-0.712l-0.278-0.887l0.054-0.799l0.152-0.726l-0.018-0.674l-0.95-1.736l-1.12-0.907l-0.555-0.974
		l0.717-1.944L338.507,526.104z"/>
	<path class="st1" d="M405.305,559.388l-4.583,0.426l-6.948,1.544l-20.724,2.352l0-0.006l0.049-0.748l-0.296-1.558l-0.743-2.258
		l-1.33-1.923l-0.269-2.675l0.443-1.809l1.899-4.887l0.484-1.243l0.242-1.037l0.094-1.78l-0.296-4.902l-0.094-2.347l0.108-0.808
		l0.269-0.732l0.658-1.062l0.443-0.567l0.712-0.712l0.202-0.585l0.161-0.936l-0.094-1.579l0.47-2.24l1.156-2.361l-0.081-1.703
		l-0.161-1.075l0.121-0.742l0.314-0.867l1.25-2.173l0.712-0.827l0.39-0.762l1.371-3.491l0.537-1.015l0.417-1.32l-0.793-2.12
		l26.081-0.108l2.97,4.818l0.86,3.534l0.273,4.998l0.349,9.301l0.094,2.598l0.618,7.894l0.954,1.695l0.484,0.114l0.511,0.195
		l0.376,0.201l1.021,0.719l0.376,3.947l-0.349,2.122l-1.371,3.349l-4.089,0.504l-1.841,0.51l-1.532,0.99l-1.079,1.027
		L405.305,559.388z"/>
	<path class="st7" d="M416.061,558.39l-10.756,0.999l0.796-2.118l1.079-1.027l1.532-0.99l1.841-0.51l4.089-0.504l-0.282,1.792
		l0.655,0.557l0.426,0.065l0.426,0.262L416.061,558.39z"/>
</g>
</svg>
