<?xml version="1.0" encoding="utf-8"?>
<!-- Svg Vector Icons : http://www.onlinewebfonts.com/icon -->
<!DOCTYPE svg PUBLIC "-//W3C//DTD SVG 1.1//EN" "http://www.w3.org/Graphics/SVG/1.1/DTD/svg11.dtd">
<svg version="1.1" xmlns="http://www.w3.org/2000/svg" xmlns:xlink="http://www.w3.org/1999/xlink" x="0px" y="0px" viewBox="0 0 256 256" enable-background="new 0 0 256 256" xml:space="preserve">
<metadata> Svg Vector Icons : http://www.onlinewebfonts.com/icon </metadata>
<g> <path fill="#4d6fb5" d="M245,173.8l-21.4-70.1c0,0-14.7,11.6-15.5,12.2c-7.2,5.6-31.6,23.4-31.6,23.4L128,120.5l-52,42.1L13,167.6 l-1.9,6.1l58.2,38.9l58.6-13.1l58.5,13.1L245,173.8z"/> <path fill="#311205" d="M69,213.6l-59-39.5l2.3-7.4l0.6-0.1l62.8-5l52.2-42.2l48.4,18.9c3.2-2.3,24.5-18,31.2-23.1 c0.8-0.6,15.3-12.1,15.5-12.2l1-0.8l22,72l-0.6,0.4l-58.9,39l-58.7-13.1L69,213.6L69,213.6z M127.8,198.6l0.2,0l58.2,13l57.7-38.2 L223,105.3c-3.4,2.7-13.8,10.8-14.5,11.4c-7.2,5.5-31.4,23.2-31.6,23.4l-0.4,0.3l-48.4-18.8l-51.9,41.9l-62.7,5l-1.5,4.9l57.3,38.3 L127.8,198.6L127.8,198.6z"/> <path fill="#64ba67" d="M223.5,103.7L206,46.5l-39.5,20.4L128,43.4L89,66l-22-11l18.8,34.8l13.5,53.8l28.7-23.2l48.4,18.8 L223.5,103.7L223.5,103.7z"/> <path fill="#311205" d="M98.8,145.2L85,90.2L64.9,52.9L89,65l39-22.6l38.5,23.5l40-20.7l18,58.9l-48,36.2l-48.4-18.8L98.8,145.2z  M69.2,57.1l17.4,32.4l0,0.1l13.2,52.4l28-22.6l48.4,18.9l46.2-34.9l-17-55.6L166.5,68L128,44.5L89.1,67.1L69.2,57.1L69.2,57.1z"/> <path fill="#f6d44d" d="M99.4,143.6L85.8,89.8L67.1,55l-17-8.5L13,167.6l63.1-5.1L99.4,143.6z"/> <path fill="#311205" d="M11.7,168.6L49.5,45.2l18.2,9.1l19,35.2l0,0.1l13.7,54.4l-24,19.4L11.7,168.6z M50.6,47.8L14.2,166.6 l61.4-4.9l22.7-18.4L84.9,90.1L66.4,55.6L50.6,47.8z"/> <path fill="#ffffff" d="M128.7,197.8h-1.8v-6.1h1.8V197.8z M128.7,185.6h-1.8v-6.1h1.8V185.6z M128.7,173.4h-1.8v-6.1h1.8V173.4z  M128.7,161.3h-1.8v-6.1h1.8V161.3z M128.8,149.1h-1.8V143h1.8V149.1z M128.8,136.9H127v-6.1h1.8V136.9z M128.8,124.7H127v-6.1h1.8 V124.7z M128.8,112.5H127v-6.1h1.8V112.5z M128.8,100.4H127v-6.1h1.8V100.4z M128.9,88.2H127v-6.1h1.8V88.2z M128.9,76h-1.8v-6.1 h1.8V76z M128.9,63.8h-1.8v-6.1h1.8V63.8z M128.9,51.7h-1.8v-6.1h1.8V51.7z"/> <path fill="#ffffff" d="M14.8,169c7.5-0.6,14.9-1.2,22.4-1.9c11.2-0.9,22.4-1.9,33.6-2.8c1.4-0.1,2.8-0.2,4.2-0.3 c0.8-0.1,1.4-0.1,2-0.5c1.9-1.3,3.7-3,5.5-4.4c8.8-7.2,17.7-14.3,26.5-21.4c4.3-3.4,8.5-6.9,12.8-10.3c2.3-1.9,4.8-3.6,6.9-5.6 c0.1-0.1,0.2-0.2,0.3-0.3c-0.5,0.1-0.9,0.2-1.3,0.4c6,2.3,12,4.7,18,7c8.9,3.4,17.7,6.9,26.6,10.4c1.2,0.5,3.6,2,4.9,1.3 c1.8-1,3.4-2.6,5.1-3.8c7.8-5.9,15.6-11.8,23.4-17.6c5.7-4.3,11.4-8.6,17.1-12.9c0.1-0.1,0.2-0.2,0.3-0.2c1.4-1,0-3.4-1.4-2.4 c-5.2,3.9-10.4,7.8-15.6,11.8c-8.2,6.2-16.4,12.4-24.6,18.6c-1.9,1.4-3.8,2.9-5.7,4.3c0.4-0.1,0.7-0.1,1.1-0.2 c-14.2-5.5-28.3-11-42.4-16.5c-2-0.8-4-1.6-5.9-2.3c-0.5-0.2-1,0.1-1.3,0.4l-17.6,14.3c-9.3,7.6-18.6,15.1-28,22.6 c-2.1,1.7-4.3,3.5-6.4,5.2c0.3-0.1,0.6-0.3,1-0.4c-6.9,0.6-13.8,1.1-20.6,1.7c-11,0.9-22,1.8-33,2.7c-2.5,0.2-5,0.4-7.6,0.6 C13,166.3,13,169.1,14.8,169z"/> <path fill="#ffffff" d="M66.5,57.5c6,11,12,21.9,18.1,32.9c0.2,0.4-0.1-0.4-0.1-0.2c0.1,0.2,0.1,0.4,0.1,0.5 c0.2,0.8,0.4,1.6,0.6,2.4c0.8,3,1.5,6.1,2.3,9.1c2.1,8.4,4.2,16.8,6.3,25.2c1.4,5.5,2.8,11,4.2,16.5c0.4,1.7,3.1,1,2.6-0.7 c-3.3-13.1-6.6-26.1-9.9-39.2c-0.9-3.4-1.7-6.7-2.6-10.1c-0.4-1.5-0.6-3.1-1.1-4.5c-0.5-1.5-1.6-2.9-2.3-4.3 c-1.9-3.5-3.8-7-5.8-10.4c-3.4-6.2-6.8-12.4-10.3-18.6C68,54.6,65.6,56,66.5,57.5z M88.1,65.9l1.8,0.2l-0.4,3l-1.8-0.2L88.1,65.9z" /> <path fill="#ffffff" d="M71.4,203.6l-1.8-0.2l0.8-6.1l1.8,0.2L71.4,203.6z M73,191.4l-1.8-0.2l0.8-6.1l1.8,0.2L73,191.4z  M74.7,179.2l-1.8-0.2l0.8-6.1l1.8,0.2L74.7,179.2z M76.3,167l-1.8-0.2l0.8-6.1l1.8,0.2L76.3,167z M78,154.7l-1.8-0.2l0.8-6.1 l1.8,0.2L78,154.7z M79.6,142.5l-1.8-0.2l0.8-6.1l1.8,0.2L79.6,142.5z M81.3,130.3l-1.8-0.2l0.8-6.1l1.8,0.2L81.3,130.3z M82.9,118 l-1.8-0.2l0.8-6.1l1.8,0.2L82.9,118z M84.6,105.8l-1.8-0.2l0.8-6.1l1.8,0.2L84.6,105.8z M86.2,93.6l-1.8-0.2l0.8-6.1l1.8,0.2 L86.2,93.6z M87.9,81.4l-1.8-0.2l0.8-6.1l1.8,0.2L87.9,81.4z M68.7,209.5l1.8,0.2l-0.4,3l-1.8-0.2L68.7,209.5z"/> <path fill="#ffffff" d="M167.4,65.9l0.4,3l-1.8,0.2l-0.4-3L167.4,65.9z M184.2,203.6l-0.8-6.1l1.8-0.2l0.8,6.1L184.2,203.6z  M182.5,191.4l-0.8-6.1l1.8-0.2l0.8,6.1L182.5,191.4z M180.9,179.2L180,173l1.8-0.2l0.8,6.1L180.9,179.2z M179.2,167l-0.8-6.1 l1.8-0.2l0.8,6.1L179.2,167z M177.6,154.7l-0.8-6.1l1.8-0.2l0.8,6.1L177.6,154.7z M175.9,142.5l-0.8-6.1l1.8-0.2l0.8,6.1 L175.9,142.5z M174.3,130.3l-0.8-6.1l1.8-0.2l0.8,6.1L174.3,130.3z M172.6,118l-0.8-6.1l1.8-0.2l0.8,6.1L172.6,118z M170.9,105.8 l-0.8-6.1l1.8-0.2l0.8,6.1L170.9,105.8z M169.3,93.6l-0.8-6.1l1.8-0.2l0.8,6.1L169.3,93.6z M167.7,81.4l-0.8-6.1l1.8-0.2l0.8,6.1 L167.7,81.4z M186.8,209.5l0.4,3l-1.8,0.2l-0.4-3L186.8,209.5z"/> <path fill="#e94f4d" d="M182.2,79.5c0-15.5-7.7-24.5-24.5-24.5c-10,0-23.4,6.1-23.4,25.2c0,16.3,23.4,42.2,23.4,42.2 S182.2,96.3,182.2,79.5z"/> <path fill="#ffffff" d="M148.7,79.7c0,5.2,4.3,9.5,9.5,9.5s9.5-4.3,9.5-9.5l0,0c0-5.2-4.3-9.5-9.5-9.5S148.7,74.4,148.7,79.7z"/> <path fill="#311205" d="M158.2,90.1c-5.8,0-10.4-4.7-10.4-10.4c0-5.8,4.7-10.4,10.4-10.4s10.4,4.7,10.4,10.4 C168.6,85.4,163.9,90.1,158.2,90.1z M158.2,71.1c-4.7,0-8.6,3.9-8.6,8.6s3.9,8.6,8.6,8.6c4.8,0,8.6-3.9,8.6-8.6 S162.9,71.1,158.2,71.1z"/> <path fill="#311205" d="M158.4,122.8c8.1-11.4,18.8-21.4,23.2-35c3.5-10.8,0.9-25.5-10-31c-5.7-2.9-12.7-3.4-18.9-2.3 c-6.1,1.1-11.6,4.4-15,9.5c-3.3,5-4.8,11.5-4.3,17.5c0.5,5.8,3,11.4,5.8,16.5c4.8,8.8,11,16.7,17.4,24.4c0.1,0.1,0.2,0.3,0.3,0.4 c0.1,0.1,0,0-0.1-0.2c0.3,1.1,2,0.7,1.8-0.5c-0.2-0.6-0.9-1.3-1.3-1.7c-1.1-1.2-2.1-2.5-3.1-3.8c-3.4-4.2-6.6-8.5-9.5-13 c-3.2-5-6.2-10.3-8-15.9c-1.8-5.5-1.9-11.2-0.1-16.8c1.8-5.6,5.7-10.4,11.1-12.9c5.8-2.7,13.2-2.8,19.3-1.1 c5.2,1.4,9.4,4.7,11.8,9.5c2.6,5.3,3.3,12.1,2.1,17.8c-1.6,7.7-6.2,14.6-10.8,20.8c-4.2,5.7-9,11-13.1,16.8 C156.1,122.9,157.7,123.8,158.4,122.8L158.4,122.8z"/></g>
</svg>